<svg xmlns="http://www.w3.org/2000/svg" viewBox="0 0 500 500" width="500" height="500" preserveAspectRatio="xMidYMid meet" style="width: 100%; height: 100%; transform: translate3d(0px, 0px, 0px); content-visibility: visible;"><defs><clipPath id="__lottie_element_2"><rect width="500" height="500" x="0" y="0"></rect></clipPath></defs><g clip-path="url(#__lottie_element_2)"><g transform="matrix(0.9063078165054321,0.4226182699203491,-0.4226182699203491,0.9063078165054321,110.61808013916016,-66.43716430664062)" opacity="1" style="display: block;"><g opacity="1" transform="matrix(9,0,0,9,86.99598693847656,44.99598693847656)"><g opacity="1" transform="matrix(1,0,0,1,14.350000381469727,21.78700065612793)"><path stroke-linecap="butt" stroke-linejoin="miter" fill-opacity="0" stroke-miterlimit="10" stroke="rgb(56,49,172)" stroke-opacity="1" stroke-width="1" d=" M4.853000164031982,0 C4.853000164031982,2.680000066757202 2.680000066757202,4.853000164031982 0,4.853000164031982 C-2.680000066757202,4.853000164031982 -4.853000164031982,2.680000066757202 -4.853000164031982,0 C-4.853000164031982,-2.680000066757202 -2.680000066757202,-4.853000164031982 0,-4.853000164031982 C2.680000066757202,-4.853000164031982 4.853000164031982,-2.680000066757202 4.853000164031982,0z"></path></g></g><g opacity="1" transform="matrix(9,0,0,9,86.99598693847656,44.996002197265625)"><g opacity="1" transform="matrix(1,0,0,1,0,0)"><path stroke-linecap="butt" stroke-linejoin="miter" fill-opacity="0" stroke-miterlimit="10" stroke="rgb(56,49,172)" stroke-opacity="1" stroke-width="1" d=" M14.350000381469727,26.639999389648438 C14.350000381469727,26.639999389648438 14.350000381469727,32.152000427246094 14.350000381469727,32.152000427246094"></path></g></g></g><g transform="matrix(9,0,0,9,64.99700927734375,45.00299072265625)" opacity="0.4" style="display: block;"><g opacity="1" transform="matrix(1,0,0,1,0,0)"><path stroke-linecap="butt" stroke-linejoin="miter" fill-opacity="0" stroke-miterlimit="10" stroke="rgb(56,49,172)" stroke-opacity="1" stroke-width="1" d=" M16.742000579833984,20.57200050354004 C16.742000579833984,20.57200050354004 30.527999877929688,20.57200050354004 30.527999877929688,20.57200050354004"></path></g></g><g transform="matrix(9,0,0,9,65.00199890136719,45.00099182128906)" opacity="0.4" style="display: block;"><g opacity="1" transform="matrix(1,0,0,1,0,0)"><path stroke-linecap="butt" stroke-linejoin="miter" fill-opacity="0" stroke-miterlimit="10" stroke="rgb(247,37,133)" stroke-opacity="1" stroke-width="1" d=" M16.742000579833984,23.30900001525879 C16.742000579833984,23.30900001525879 23.635000228881836,23.30900001525879 23.635000228881836,23.30900001525879"></path></g></g></g></svg>