<?xml version="1.0" encoding="utf-8"?>
<!-- Generator: Adobe Illustrator 16.0.0, SVG Export Plug-In . SVG Version: 6.00 Build 0)  -->
<!DOCTYPE svg PUBLIC "-//W3C//DTD SVG 1.1//EN" "http://www.w3.org/Graphics/SVG/1.1/DTD/svg11.dtd">
<svg version="1.1" id="Layer_1" xmlns="http://www.w3.org/2000/svg" xmlns:xlink="http://www.w3.org/1999/xlink" x="0px" y="0px"
	 width="852px" height="759px" viewBox="0 0 852 759" enable-background="new 0 0 852 759" xml:space="preserve">
<g>
	<path opacity="0.98" fill="#989798" d="M851.596,18.753c0-6.66-5.137-12.057-11.471-12.057H127.666V6.695h-18.722v0.002l0,0H16.775
		c-6.335,0-11.471,5.397-11.471,12.057v727.995c0,6.66,5.136,12.058,11.471,12.058h92.169h731.181
		c6.334,0,11.471-5.397,11.471-12.058V18.753z"/>
	<path fill="#FFFFFF" d="M835.227,752.302H11.876c-6.336,0-11.472-5.398-11.472-12.059V12.25c0-6.66,5.136-12.057,11.472-12.057
		h823.351c6.336,0,11.471,5.397,11.471,12.057v727.993C846.697,746.904,841.563,752.302,835.227,752.302z"/>
</g>
<g>
</g>
<g>
</g>
<g>
</g>
<g>
</g>
<g>
</g>
<g>
</g>
</svg>
