<?xml version="1.0" encoding="utf-8"?>
<!-- Generator: Adobe Illustrator 16.0.0, SVG Export Plug-In . SVG Version: 6.00 Build 0)  -->
<!DOCTYPE svg PUBLIC "-//W3C//DTD SVG 1.1//EN" "http://www.w3.org/Graphics/SVG/1.1/DTD/svg11.dtd">
<svg version="1.1" id="Layer_1" xmlns="http://www.w3.org/2000/svg" xmlns:xlink="http://www.w3.org/1999/xlink" x="0px" y="0px"
	 width="1156px" height="710px" viewBox="0 0 1156 710" enable-background="new 0 0 1156 710" xml:space="preserve">
<g>
	<g>
		<path opacity="0.98" fill="#989898" d="M1155.447,18.929c0-6.66-5.137-12.057-11.471-12.057H127.816V6.871h-18.723v0.002l0,0
			h-92.17c-6.334,0-11.47,5.396-11.47,12.057v678.643c0,6.659,5.136,12.058,11.47,12.058h92.17h1034.883
			c6.334,0,11.471-5.398,11.471-12.058V18.929z"/>
		<path fill="#FFFFFF" d="M1139.078,703.126H12.025c-6.336,0-11.472-5.398-11.472-12.059V12.426c0-6.66,5.136-12.057,11.472-12.057
			h1127.053c6.336,0,11.471,5.396,11.471,12.057v678.641C1150.548,697.728,1145.414,703.126,1139.078,703.126z"/>
		<path fill="#F4F5F9" d="M1122.947,691.226H27.945c-7.161,0-12.966-5.399-12.966-12.058V24.328c0-6.66,5.805-12.06,12.966-12.06
			h1095.002c7.16,0,12.965,5.399,12.965,12.06v654.84C1135.912,685.826,1130.107,691.226,1122.947,691.226z"/>
	</g>
</g>
</svg>
