<?xml version="1.0" encoding="utf-8"?>
<!-- Generator: Adobe Illustrator 16.0.0, SVG Export Plug-In . SVG Version: 6.00 Build 0)  -->
<!DOCTYPE svg PUBLIC "-//W3C//DTD SVG 1.1//EN" "http://www.w3.org/Graphics/SVG/1.1/DTD/svg11.dtd">
<svg version="1.1" id="Layer_1" xmlns="http://www.w3.org/2000/svg" xmlns:xlink="http://www.w3.org/1999/xlink" x="0px" y="0px"
	 width="1176px" height="710px" viewBox="0 0 1176 710" enable-background="new 0 0 1176 710" xml:space="preserve">
<g>
	<g>
		<path opacity="0.98" fill="#989798" d="M1175.929,18.93c0-6.66-5.137-12.057-11.471-12.057H148.298V6.872h-18.723v0.002l0,0
			H37.406c-6.335,0-11.471,5.396-11.471,12.057v678.643c0,6.659,5.136,12.058,11.471,12.058h92.169h1034.883
			c6.334,0,11.471-5.398,11.471-12.058V18.93z"/>
		<path fill="#FFFFFF" d="M1159.56,703.126H32.508c-6.336,0-11.473-5.398-11.473-12.059V12.426c0-6.66,5.137-12.057,11.473-12.057
			H1159.56c6.336,0,11.472,5.396,11.472,12.057v678.642C1171.031,697.728,1165.896,703.126,1159.56,703.126z"/>
		<path fill="#F3F5F9" d="M1143.429,691.226H48.427c-7.161,0-12.966-5.399-12.966-12.058V24.329c0-6.66,5.805-12.061,12.966-12.061
			h1095.002c7.16,0,12.965,5.4,12.965,12.061v654.84C1156.394,685.827,1150.589,691.226,1143.429,691.226z"/>
	</g>
	<path fill="#66BFCE" d="M38.296,155.508H13.367c-7.311,0-13.296-5.916-13.296-13.295V45.821c0-7.313,5.985-13.295,13.296-13.295
		h1011.197c7.313,0,13.295,5.982,13.295,13.295v96.393c0,7.379-5.982,13.295-13.295,13.295H93.14"/>
</g>
<g>
</g>
<g>
</g>
<g>
</g>
<g>
</g>
<g>
</g>
<g>
</g>
</svg>
