<?xml version="1.0" encoding="utf-8"?>
<!-- Generator: Adobe Illustrator 16.0.0, SVG Export Plug-In . SVG Version: 6.00 Build 0)  -->
<!DOCTYPE svg PUBLIC "-//W3C//DTD SVG 1.1//EN" "http://www.w3.org/Graphics/SVG/1.1/DTD/svg11.dtd">
<svg version="1.1" id="Layer_1" xmlns="http://www.w3.org/2000/svg" xmlns:xlink="http://www.w3.org/1999/xlink" x="0px" y="0px"
	 width="1240px" height="724px" viewBox="0 0 1240 724" enable-background="new 0 0 1240 724" xml:space="preserve">
<g>
	<path opacity="0.98" fill="#989898" d="M1239.777,18.989c0-6.66-5.137-12.057-11.471-12.057H127.485V6.931h-18.722v0.002l0,0
		H16.594c-6.335,0-11.471,5.397-11.471,12.057v692.522c0,6.66,5.136,12.059,11.471,12.059h92.169h1119.544
		c6.334,0,11.471-5.398,11.471-12.059V18.989z"/>
	<path fill="#FFFFFF" d="M1223.408,717.066H11.695c-6.336,0-11.472-5.398-11.472-12.059V12.486c0-6.66,5.136-12.057,11.472-12.057
		h1211.713c6.336,0,11.473,5.397,11.473,12.057v692.521C1234.881,711.668,1229.744,717.066,1223.408,717.066z"/>
	<path fill="#F9FAFC" fill-opacity="0.5" d="M1207.277,705.166H27.614c-7.161,0-12.966-5.399-12.966-12.058V24.388
		c0-6.66,5.805-12.06,12.966-12.06h1179.663c7.16,0,12.966,5.399,12.966,12.06v668.721
		C1220.243,699.767,1214.438,705.166,1207.277,705.166z"/>
</g>
</svg>
