<?xml version="1.0" encoding="utf-8"?>
<!-- Generator: Adobe Illustrator 16.0.0, SVG Export Plug-In . SVG Version: 6.00 Build 0)  -->
<!DOCTYPE svg PUBLIC "-//W3C//DTD SVG 1.1//EN" "http://www.w3.org/Graphics/SVG/1.1/DTD/svg11.dtd">
<svg version="1.1" id="Layer_1" xmlns="http://www.w3.org/2000/svg" xmlns:xlink="http://www.w3.org/1999/xlink" x="0px" y="0px"
	 width="1176px" height="678px" viewBox="0 0 1176 678" enable-background="new 0 0 1176 678" xml:space="preserve">
<g>
	<g>
		<path opacity="0.98" fill="#989898" d="M1175.929,62.216c0-6.66-5.137-12.057-11.471-12.057H148.298v-0.002h-18.723v0.002l0,0
			h-92.17c-6.334,0-11.47,5.396-11.47,12.057v603.278c0,6.659,5.136,12.058,11.47,12.058h92.17h1034.883
			c6.334,0,11.471-5.398,11.471-12.058V62.216z"/>
		<path fill="#FFFFFF" d="M1159.56,671.048H32.507c-6.336,0-11.472-5.398-11.472-12.059V55.713c0-6.66,5.136-12.057,11.472-12.057
			H1159.56c6.336,0,11.471,5.396,11.471,12.057V658.99C1171.03,665.65,1165.896,671.048,1159.56,671.048z"/>
		<path fill="#EDF0FF" d="M1143.429,659.148H48.427c-7.161,0-12.966-5.399-12.966-12.058V67.615c0-6.66,5.805-12.06,12.966-12.06
			h1095.002c7.16,0,12.965,5.399,12.965,12.06V647.09C1156.394,653.749,1150.589,659.148,1143.429,659.148z"/>
	</g>
	<path fill="#F488BD" d="M38.296,123.43H13.367c-7.312,0-13.296-5.916-13.296-13.295V13.743c0-7.313,5.984-13.295,13.296-13.295
		h297.171c7.313,0,13.294,5.982,13.294,13.295v96.393c0,7.379-5.981,13.295-13.294,13.295H93.14"/>
</g>
</svg>
