<?xml version="1.0" encoding="utf-8"?>
<!-- Generator: Adobe Illustrator 16.0.0, SVG Export Plug-In . SVG Version: 6.00 Build 0)  -->
<!DOCTYPE svg PUBLIC "-//W3C//DTD SVG 1.1//EN" "http://www.w3.org/Graphics/SVG/1.1/DTD/svg11.dtd">
<svg version="1.1" id="Layer_1" xmlns="http://www.w3.org/2000/svg" xmlns:xlink="http://www.w3.org/1999/xlink" x="0px" y="0px"
	 width="1085px" height="824px" viewBox="0 0 1085 824" enable-background="new 0 0 1085 824" xml:space="preserve">
<line fill="none" stroke="#E22B00" stroke-width="3" x1="176.136" y1="735.799" x2="238.136" y2="735.799"/>
<g>
	<path opacity="0.98" fill="#989898" d="M1085.356,19.462c0-6.66-5.137-12.057-11.471-12.057H361.427V7.403h-18.722v0.002l0,0
		h-92.169c-6.335,0-11.471,5.397-11.471,12.057v727.995c0,6.66,5.136,12.058,11.471,12.058h92.169h731.181
		c6.334,0,11.471-5.397,11.471-12.058V19.462z"/>
	<path fill="#FFFFFF" d="M1068.987,753.011H245.637c-6.336,0-11.472-5.398-11.472-12.059V12.959c0-6.66,5.136-12.057,11.472-12.057
		h823.351c6.336,0,11.471,5.397,11.471,12.057v727.993C1080.458,747.612,1075.323,753.011,1068.987,753.011z"/>
	<path fill="#FFDCDA" d="M1052.856,741.11h-791.3c-7.161,0-12.966-5.399-12.966-12.058V24.86c0-6.66,5.805-12.06,12.966-12.06h791.3
		c7.16,0,12.965,5.399,12.965,12.06v704.192C1065.821,735.711,1060.017,741.11,1052.856,741.11z"/>
</g>
<circle fill="#FFBBB6" cx="88.644" cy="734.1" r="89"/>
</svg>
