<?xml version="1.0" encoding="utf-8"?>
<!-- Generator: Adobe Illustrator 16.0.0, SVG Export Plug-In . SVG Version: 6.00 Build 0)  -->
<!DOCTYPE svg PUBLIC "-//W3C//DTD SVG 1.1//EN" "http://www.w3.org/Graphics/SVG/1.1/DTD/svg11.dtd">
<svg version="1.1" id="Layer_1" xmlns="http://www.w3.org/2000/svg" xmlns:xlink="http://www.w3.org/1999/xlink" x="0px" y="0px"
	 width="1085px" height="760px" viewBox="0 0 1085 760" enable-background="new 0 0 1085 760" xml:space="preserve">
<g>
	<path opacity="0.98" fill="#989898" d="M1084.833,19.253c0-6.66-5.138-12.057-11.473-12.057H360.902V7.195h-18.722v0.002l0,0
		h-92.17c-6.334,0-11.471,5.397-11.471,12.057v727.995c0,6.66,5.137,12.058,11.471,12.058h92.17h731.18
		c6.335,0,11.473-5.397,11.473-12.058V19.253z"/>
	<path fill="#FFFFFF" d="M1068.462,752.802h-823.35c-6.336,0-11.473-5.398-11.473-12.059V12.75c0-6.66,5.137-12.057,11.473-12.057
		h823.35c6.336,0,11.472,5.397,11.472,12.057v727.993C1079.934,747.404,1074.798,752.802,1068.462,752.802z"/>
	<path fill="#CDF7F4" d="M1052.333,740.902H261.032c-7.162,0-12.967-5.399-12.967-12.058V24.652c0-6.66,5.805-12.06,12.967-12.06
		h791.301c7.159,0,12.964,5.399,12.964,12.06v704.192C1065.297,735.502,1059.492,740.902,1052.333,740.902z"/>
</g>
<line fill="none" stroke="#007774" stroke-width="3" x1="176.659" y1="543.294" x2="238.659" y2="543.294"/>
<circle fill="#9CEFEA" cx="89.167" cy="540.927" r="89"/>
</svg>
