<?xml version="1.0" encoding="utf-8"?>
<!-- Generator: Adobe Illustrator 16.0.0, SVG Export Plug-In . SVG Version: 6.00 Build 0)  -->
<!DOCTYPE svg PUBLIC "-//W3C//DTD SVG 1.1//EN" "http://www.w3.org/Graphics/SVG/1.1/DTD/svg11.dtd">
<svg version="1.1" id="Layer_1" xmlns="http://www.w3.org/2000/svg" xmlns:xlink="http://www.w3.org/1999/xlink" x="0px" y="0px"
	 width="214px" height="774px" viewBox="0 0 214 774" enable-background="new 0 0 214 774" xml:space="preserve">
<g>
	<g>
		<path fill="#6C00D3" stroke="#6C00D3" stroke-width="2" d="M185.811,227.207c-16.951-16.951-39.486-26.286-63.459-26.286
			c-23.704,0-46.061,9.157-62.952,25.784c-0.387,0.38-0.391,1.001-0.012,1.387c0.379,0.386,1.002,0.391,1.387,0.011
			c16.523-16.263,38.391-25.219,61.577-25.219c48.404,0,87.783,39.379,87.783,87.782c0,48.402-39.379,87.784-87.783,87.784
			c-26.293,0-50.983-11.643-67.737-31.946c-0.322-0.392-0.882-0.464-1.295-0.19H3.867v-8.682l33.89-34.56
			c8.286-8.386,13.89-15.247,16.651-20.39c2.794-5.202,4.21-9.996,4.21-14.246c0-4.508-1.526-8.294-4.536-11.252
			c-3.006-2.952-6.914-4.449-11.616-4.449c-4.774,0-8.81,1.803-11.996,5.358c-2.979,3.329-4.663,7.814-5.01,13.343H6.926
			c0.7-11.126,4.358-20.02,10.881-26.447c6.712-6.616,15.462-9.97,26.011-9.97c6.508,0,12.325,1.386,17.289,4.122
			c4.949,2.729,8.967,6.724,11.94,11.873c2.978,5.157,4.487,10.463,4.487,15.77c0,6.376-1.85,13.354-5.496,20.745
			c-3.671,7.435-10.502,16.374-20.309,26.571l-12.397,13.068c-0.271,0.285-0.345,0.703-0.19,1.063
			c0.155,0.36,0.51,0.593,0.902,0.593h32.701c0.543,0,0.982-0.438,0.982-0.98s-0.439-0.981-0.982-0.981h-30.42l10.823-11.407
			c9.941-10.338,16.889-19.442,20.647-27.058c3.782-7.663,5.699-14.935,5.699-21.614c0-5.657-1.598-11.292-4.748-16.751
			c-3.156-5.463-7.427-9.706-12.695-12.61c-5.256-2.896-11.392-4.365-18.234-4.365c-11.082,0-20.297,3.543-27.389,10.534
			c-7.084,6.981-10.959,16.665-11.52,28.78c-0.012,0.267,0.086,0.528,0.271,0.722c0.185,0.194,0.441,0.305,0.709,0.305h20.504
			c0.529,0,0.962-0.419,0.98-0.948c0.189-5.493,1.723-9.884,4.557-13.048c2.836-3.166,6.281-4.706,10.534-4.706
			c4.228,0,7.577,1.272,10.241,3.887c2.657,2.612,3.949,5.834,3.949,9.853c0,3.923-1.338,8.404-3.977,13.317
			c-2.673,4.979-8.163,11.688-16.321,19.943L2.185,336.543c-0.18,0.184-0.28,0.43-0.28,0.687v10.064c0,0.542,0.439,0.98,0.981,0.98
			h50.659c17.119,20.431,42.153,32.138,68.806,32.138c23.973,0,46.508-9.338,63.459-26.288
			c16.951-16.951,26.285-39.488,26.285-63.459C212.096,266.693,202.762,244.157,185.811,227.207z"/>
		<path fill="#E5E500" stroke="#E22B00" stroke-width="2" d="M184.92,619.162c-16.951-16.948-39.486-26.284-63.459-26.284
			c-23.717,0-46.082,9.164-62.975,25.806c-0.387,0.379-0.391,1.001-0.012,1.386c0.381,0.387,1.002,0.392,1.389,0.013
			c16.523-16.278,38.4-25.243,61.598-25.243c48.404,0,87.783,39.378,87.783,87.782c0,48.403-39.379,87.783-87.783,87.783
			c-25.989,0-50.404-11.381-67.145-31.248v-22.194c0-0.545-0.438-0.981-0.98-0.981H6.099v-18.172l47.377-70.442h19.456v70.142
			c0,0.542,0.44,0.981,0.981,0.981h6.91c0.541,0,0.98-0.439,0.98-0.981c0-0.541-0.439-0.981-0.98-0.981h-5.93v-70.141
			c0-0.542-0.438-0.982-0.98-0.982h-20.96c-0.326,0-0.632,0.164-0.813,0.434L4.304,696.961c-0.108,0.162-0.168,0.353-0.168,0.547
			v19.454c0,0.541,0.439,0.979,0.982,0.979h47.236v20.377c-0.004,0.003-0.009,0.005-0.012,0.008
			c-0.419,0.345-0.477,0.963-0.133,1.381c0.063,0.078,0.13,0.151,0.193,0.228c0.08,0.255,0.258,0.461,0.491,0.58
			c17.114,20.252,42.038,31.851,68.566,31.851c23.973,0,46.508-9.336,63.459-26.284c16.949-16.952,26.285-39.489,26.285-63.46
			S201.869,636.113,184.92,619.162z"/>
		<path fill="#E5E500" stroke="#E22B00" stroke-width="2" d="M52.525,659.931l-25.236,37.025c-0.203,0.301-0.225,0.688-0.056,1.011
			c0.17,0.321,0.503,0.522,0.868,0.522h25.234c0.542,0,0.98-0.439,0.98-0.981v-37.025c0-0.432-0.28-0.81-0.691-0.937
			C53.212,659.418,52.766,659.574,52.525,659.931z M52.355,696.526H29.957l22.398-32.863V696.526z"/>
		<path fill="#76936F" stroke="#76936F" stroke-width="2" d="M185.291,27.919C168.34,10.97,145.805,1.635,121.832,1.635
			c-24.391,0-47.207,9.617-64.243,27.08c-0.378,0.388-0.371,1.009,0.017,1.387c0.388,0.378,1.009,0.371,1.388-0.017
			c16.663-17.082,38.98-26.488,62.838-26.488c48.404,0,87.783,39.378,87.783,87.782c0,48.403-39.379,87.781-87.783,87.781
			c-26.842,0-51.825-12.028-68.596-33.01V35.751c0-0.542-0.439-0.981-0.982-0.981H20.785c-0.34,0-0.656,0.176-0.835,0.466
			L7.783,54.989c-0.186,0.302-0.193,0.682-0.02,0.992c0.173,0.31,0.5,0.503,0.855,0.503h21.775v89.744
			c0,0.542,0.439,0.981,0.98,0.981s0.982-0.439,0.982-0.981V55.502c0-0.541-0.441-0.98-0.982-0.98h-21l10.959-17.791h29.939v109.497
			c0,0.074,0.01,0.146,0.025,0.215c-0.02,0.24,0.045,0.487,0.207,0.691c17.146,21.6,42.78,33.989,70.327,33.989
			c23.973,0,46.508-9.335,63.459-26.287c16.951-16.95,26.285-39.486,26.285-63.458C211.576,67.408,202.242,44.871,185.291,27.919z"
			/>
		<path fill="#007774" stroke="#007774" stroke-width="2" d="M80.427,473.037c-0.438-0.29-0.572-0.872-0.301-1.319
			c2.227-3.671,3.355-7.74,3.355-12.113c0-7.591-2.99-14.247-8.89-19.788c-5.92-5.555-13.363-8.369-22.124-8.369
			c-9.842,0-18.12,3.386-24.606,10.066c-4.415,4.551-7.226,10.608-8.36,18.011h18.367c1.006-2.783,2.737-5.103,5.152-6.902
			c2.614-1.946,5.566-2.936,8.772-2.936c3.646,0,6.65,1.088,8.932,3.233c2.298,2.162,3.464,4.917,3.464,8.188
			c0,2.49-0.751,4.873-2.232,7.08c-1.471,2.193-3.549,3.937-6.176,5.184c-2.459,1.168-5.979,1.949-10.744,2.382v16.162
			c7.934,0.231,14.146,2.089,18.48,5.526c4.582,3.633,6.906,8.161,6.906,13.461c0,4.807-1.73,8.936-5.142,12.267
			c-3.402,3.324-7.74,5.011-12.888,5.011c-4.936,0-9.086-1.488-12.336-4.421c-3.084-2.782-5.148-6.978-6.145-12.478H14.99
			c0.799,10.375,4.41,18.708,10.744,24.785c6.539,6.271,15.129,9.452,25.533,9.452c1.213,0,2.42-0.04,3.585-0.122
			c0.009-0.001,0.017-0.001,0.024-0.001c0.009,0,0.018-0.003,0.027-0.003c0.004,0,0.01,0.003,0.014,0
			c0.061-0.001,0.117-0.001,0.175,0.007c0.011,0.001,0.019,0.005,0.029,0.006c0.054,0.008,0.106,0.021,0.157,0.037
			c0.01,0.003,0.02,0.007,0.028,0.01c0.05,0.02,0.099,0.04,0.146,0.066c0.009,0.006,0.018,0.011,0.027,0.017
			c0.044,0.026,0.085,0.057,0.124,0.089c0.012,0.011,0.022,0.022,0.034,0.034c0.025,0.023,0.053,0.044,0.078,0.07
			c16.707,19.407,40.963,30.536,66.547,30.536c48.402,0,87.783-39.379,87.783-87.782c0-48.404-39.381-87.781-87.783-87.781
			c-22.575,0-44.018,8.549-60.391,24.074c-0.373,0.353-0.966,0.409-1.354,0.073c-0.446-0.386-0.456-1.061-0.038-1.458
			c16.744-15.896,38.686-24.651,61.784-24.651c23.973,0,46.509,9.335,63.461,26.283c16.779,16.784,26.096,39.041,26.281,62.744
			c0.184,23.699-9.059,46.621-25.654,63.541c-17.021,17.351-39.818,26.919-64.088,26.919c-25.993,0-50.641-11.24-67.71-30.85
			c-1.077,0.064-2.177,0.104-3.286,0.104c-10.928,0-19.975-3.365-26.891-9.999c-6.913-6.631-10.754-15.757-11.416-27.126
			c-0.016-0.269,0.082-0.531,0.266-0.729c0.186-0.196,0.443-0.308,0.714-0.308h20.804c0.486,0,0.895,0.358,0.972,0.839
			c0.861,5.448,2.765,9.533,5.657,12.145c2.878,2.597,6.586,3.915,11.021,3.915c4.617,0,8.494-1.498,11.52-4.452
			c3.061-2.989,4.548-6.545,4.548-10.863c0-4.736-2.017-8.636-6.163-11.926c-4.159-3.298-10.298-5.02-18.244-5.119
			c-0.539-0.007-0.979-0.444-0.979-0.982v-18.024c0-0.508,0.391-0.936,0.898-0.976c4.917-0.39,8.605-1.156,10.965-2.276
			c2.305-1.093,4.117-2.608,5.391-4.504c1.26-1.879,1.898-3.895,1.898-5.987c0-2.746-0.932-4.956-2.846-6.758
			c-1.934-1.818-4.416-2.7-7.589-2.7c-2.776,0-5.332,0.855-7.601,2.546c-2.274,1.696-3.85,3.918-4.684,6.608
			c-0.127,0.407-0.508,0.685-0.936,0.685H18.371c-0.281,0-0.55-0.122-0.736-0.334c-0.186-0.212-0.271-0.494-0.236-0.772
			c1.074-8.339,4.121-15.146,9.057-20.236c6.869-7.074,15.621-10.661,26.014-10.661c9.277,0,17.172,2.995,23.465,8.903
			c6.311,5.924,9.51,13.063,9.51,21.217c0,4.73-1.221,9.139-3.629,13.116C81.523,473.198,80.894,473.345,80.427,473.037
			L80.427,473.037z"/>
	</g>
</g>
</svg>
