<?xml version="1.0" encoding="utf-8"?>
<!-- Generator: Adobe Illustrator 16.0.0, SVG Export Plug-In . SVG Version: 6.00 Build 0)  -->
<!DOCTYPE svg PUBLIC "-//W3C//DTD SVG 1.1//EN" "http://www.w3.org/Graphics/SVG/1.1/DTD/svg11.dtd">
<svg version="1.1" id="Layer_1" xmlns="http://www.w3.org/2000/svg" xmlns:xlink="http://www.w3.org/1999/xlink" x="0px" y="0px"
	 width="1085px" height="760px" viewBox="0 0 1085 760" enable-background="new 0 0 1085 760" xml:space="preserve">
<line fill="none" stroke="#76936F" stroke-width="3" x1="178.579" y1="144.461" x2="240.579" y2="144.461"/>
<g>
	<path opacity="0.98" fill="#989898" d="M1084.914,19.253c0-6.66-5.137-12.057-11.471-12.057H360.984V7.195h-18.722v0.002l0,0
		h-92.169c-6.335,0-11.471,5.397-11.471,12.057v727.995c0,6.66,5.136,12.058,11.471,12.058h92.169h731.181
		c6.334,0,11.471-5.397,11.471-12.058V19.253z"/>
	<path fill="#FFFFFF" d="M1068.544,752.802H245.194c-6.336,0-11.472-5.398-11.472-12.059V12.75c0-6.66,5.136-12.057,11.472-12.057
		h823.351c6.336,0,11.471,5.397,11.471,12.057v727.993C1080.015,747.404,1074.88,752.802,1068.544,752.802z"/>
	<path fill="#E9F4E6" d="M1052.414,740.902h-791.3c-7.161,0-12.966-5.399-12.966-12.058V24.652c0-6.66,5.805-12.06,12.966-12.06
		h791.3c7.16,0,12.965,5.399,12.965,12.06v704.192C1065.378,735.502,1059.574,740.902,1052.414,740.902z"/>
</g>
<circle fill="#D5EACE" cx="89.086" cy="142.626" r="89"/>
</svg>
