<?xml version="1.0" encoding="utf-8"?>
<!-- Generator: Adobe Illustrator 16.0.0, SVG Export Plug-In . SVG Version: 6.00 Build 0)  -->
<!DOCTYPE svg PUBLIC "-//W3C//DTD SVG 1.1//EN" "http://www.w3.org/Graphics/SVG/1.1/DTD/svg11.dtd">
<svg version="1.1" id="Layer_1" xmlns="http://www.w3.org/2000/svg" xmlns:xlink="http://www.w3.org/1999/xlink" x="0px" y="0px"
	 width="247.221px" height="68.759px" viewBox="0 0 247.221 68.759" enable-background="new 0 0 247.221 68.759"
	 xml:space="preserve">
<g>
	<g>
		<defs>
			<rect id="SVGID_1_" width="247.221" height="68.759"/>
		</defs>
		<clipPath id="SVGID_2_">
			<use xlink:href="#SVGID_1_"  overflow="visible"/>
		</clipPath>
		<path clip-path="url(#SVGID_2_)" fill="#001541" d="M57.646,36.562L46.199,54.891l-5.893-11.456l15.271-26.226
			c-4.104-3.677-9.521-5.916-15.467-5.916c-12.809,0-23.191,10.383-23.191,23.192c0,3.162,0.635,6.178,1.783,8.923l17.27-29.653
			l9.379,17.123l-6.168,10.554l-3.211-4.771L25.889,52.797c3.926,3.053,8.859,4.878,14.223,4.878
			c9.662,0,17.939-5.909,21.424-14.308L57.646,36.562z"/>
	</g>
	<g>
		<defs>
			<rect id="SVGID_3_" width="247.221" height="68.759"/>
		</defs>
		<clipPath id="SVGID_4_">
			<use xlink:href="#SVGID_3_"  overflow="visible"/>
		</clipPath>
		<polygon clip-path="url(#SVGID_4_)" fill="#404041" points="76.422,16.235 83.033,16.235 87.6,29.179 87.658,29.179 
			92.252,16.235 98.836,16.235 98.836,36.073 94.465,36.073 94.465,20.858 94.41,20.858 89.197,36.073 85.863,36.073 80.85,20.858 
			80.793,20.858 80.793,36.073 76.422,36.073 		"/>
	</g>
	<g>
		<defs>
			<rect id="SVGID_5_" width="247.221" height="68.759"/>
		</defs>
		<clipPath id="SVGID_6_">
			<use xlink:href="#SVGID_5_"  overflow="visible"/>
		</clipPath>
		<path clip-path="url(#SVGID_6_)" fill="#404041" d="M110.098,16.235h3.615l8.629,19.837h-4.93l-1.711-4.206h-7.703l-1.652,4.206
			h-4.82L110.098,16.235z M111.779,22.005l-2.408,6.164h4.846L111.779,22.005z"/>
	</g>
	<g>
		<defs>
			<rect id="SVGID_7_" width="247.221" height="68.759"/>
		</defs>
		<clipPath id="SVGID_8_">
			<use xlink:href="#SVGID_7_"  overflow="visible"/>
		</clipPath>
		<path clip-path="url(#SVGID_8_)" fill="#404041" d="M125.031,16.235h7.678c1.008,0,1.967,0.098,2.871,0.294
			c0.906,0.196,1.699,0.522,2.381,0.98c0.684,0.458,1.225,1.074,1.627,1.848c0.402,0.776,0.602,1.743,0.602,2.899
			c0,1.401-0.363,2.593-1.092,3.574s-1.793,1.602-3.193,1.862l5.043,8.379h-5.24l-4.145-7.929h-2.16v7.929h-4.371V16.235z
			 M129.402,24.444h2.578c0.391,0,0.809-0.014,1.248-0.043c0.439-0.027,0.836-0.112,1.189-0.251c0.355-0.141,0.65-0.359,0.881-0.658
			c0.234-0.299,0.354-0.719,0.354-1.262c0-0.505-0.105-0.906-0.311-1.205c-0.203-0.298-0.467-0.527-0.781-0.688
			c-0.32-0.158-0.684-0.266-1.094-0.321c-0.414-0.056-0.813-0.085-1.205-0.085h-2.859V24.444z"/>
	</g>
	<g>
		<defs>
			<rect id="SVGID_9_" width="247.221" height="68.759"/>
		</defs>
		<clipPath id="SVGID_10_">
			<use xlink:href="#SVGID_9_"  overflow="visible"/>
		</clipPath>
		<rect x="143.832" y="16.235" clip-path="url(#SVGID_10_)" fill="#404041" width="4.371" height="19.837"/>
	</g>
	<g>
		<defs>
			<rect id="SVGID_11_" width="247.221" height="68.759"/>
		</defs>
		<clipPath id="SVGID_12_">
			<use xlink:href="#SVGID_11_"  overflow="visible"/>
		</clipPath>
		<path clip-path="url(#SVGID_12_)" fill="#404041" d="M165.154,21.39c-0.432-0.523-0.959-0.926-1.584-1.206
			c-0.625-0.28-1.35-0.419-2.172-0.419s-1.58,0.159-2.283,0.477c-0.699,0.318-1.309,0.761-1.822,1.331
			c-0.512,0.57-0.914,1.247-1.203,2.032c-0.289,0.784-0.436,1.634-0.436,2.549c0,0.933,0.146,1.788,0.436,2.563
			c0.289,0.774,0.686,1.448,1.189,2.018c0.506,0.569,1.1,1.013,1.779,1.33c0.684,0.318,1.416,0.478,2.201,0.478
			c0.896,0,1.689-0.187,2.379-0.562c0.693-0.372,1.262-0.896,1.711-1.569l3.645,2.719c-0.842,1.175-1.908,2.044-3.195,2.604
			c-1.289,0.561-2.617,0.841-3.979,0.841c-1.551,0-2.98-0.242-4.287-0.728c-1.309-0.486-2.438-1.182-3.393-2.087
			c-0.951-0.906-1.693-2.003-2.227-3.293c-0.531-1.287-0.799-2.727-0.799-4.314s0.268-3.026,0.799-4.315
			c0.533-1.288,1.275-2.385,2.227-3.291c0.955-0.907,2.084-1.602,3.393-2.087c1.307-0.487,2.736-0.729,4.287-0.729
			c0.561,0,1.143,0.051,1.75,0.154c0.605,0.102,1.205,0.265,1.795,0.49c0.588,0.224,1.152,0.523,1.695,0.896
			c0.541,0.374,1.025,0.831,1.455,1.373L165.154,21.39z"/>
	</g>
	<g>
		<defs>
			<rect id="SVGID_13_" width="247.221" height="68.759"/>
		</defs>
		<clipPath id="SVGID_14_">
			<use xlink:href="#SVGID_13_"  overflow="visible"/>
		</clipPath>
		<path clip-path="url(#SVGID_14_)" fill="#404041" d="M170.027,26.153c0-1.587,0.268-3.027,0.801-4.314
			c0.531-1.289,1.273-2.387,2.227-3.292c0.953-0.907,2.082-1.603,3.389-2.088c1.309-0.486,2.736-0.729,4.289-0.729
			c1.549,0,2.979,0.243,4.283,0.729c1.311,0.485,2.439,1.181,3.391,2.088c0.955,0.905,1.697,2.003,2.23,3.292
			c0.531,1.288,0.797,2.727,0.797,4.314c0,1.588-0.266,3.025-0.797,4.314c-0.533,1.291-1.275,2.387-2.23,3.293
			c-0.951,0.904-2.08,1.602-3.391,2.086c-1.305,0.485-2.734,0.729-4.283,0.729c-1.551,0-2.98-0.243-4.289-0.729
			c-1.307-0.484-2.436-1.182-3.389-2.086c-0.953-0.906-1.695-2.003-2.227-3.293C170.295,29.178,170.027,27.741,170.027,26.153
			 M174.566,26.153c0,0.935,0.145,1.789,0.436,2.563c0.289,0.775,0.705,1.448,1.248,2.018c0.539,0.569,1.188,1.013,1.945,1.33
			c0.756,0.317,1.602,0.477,2.535,0.477c0.936,0,1.779-0.159,2.535-0.477c0.756-0.317,1.404-0.761,1.947-1.33
			c0.541-0.57,0.957-1.243,1.248-2.018c0.289-0.774,0.434-1.629,0.434-2.563c0-0.915-0.145-1.766-0.434-2.55
			c-0.291-0.784-0.707-1.461-1.248-2.031c-0.543-0.57-1.191-1.014-1.947-1.331c-0.756-0.318-1.6-0.475-2.535-0.475
			c-0.934,0-1.779,0.157-2.535,0.475c-0.758,0.317-1.406,0.761-1.945,1.331c-0.543,0.571-0.959,1.247-1.248,2.031
			C174.711,24.387,174.566,25.238,174.566,26.153"/>
	</g>
	<g>
		<defs>
			<rect id="SVGID_15_" width="247.221" height="68.759"/>
		</defs>
		<clipPath id="SVGID_16_">
			<use xlink:href="#SVGID_15_"  overflow="visible"/>
		</clipPath>
		<path clip-path="url(#SVGID_16_)" fill="#404041" d="M195.104,16.233h7.371c1.023,0,1.996,0.095,2.91,0.281
			c0.918,0.188,1.717,0.508,2.396,0.967c0.684,0.459,1.225,1.074,1.627,1.848c0.398,0.776,0.604,1.752,0.604,2.928
			c0,1.159-0.189,2.13-0.561,2.915c-0.375,0.786-0.889,1.411-1.543,1.877c-0.654,0.468-1.43,0.799-2.324,0.994
			c-0.898,0.198-1.871,0.295-2.914,0.295h-3.195v7.734h-4.371V16.233z M199.475,24.639h2.914c0.393,0,0.771-0.038,1.135-0.112
			c0.365-0.075,0.691-0.2,0.98-0.377c0.289-0.179,0.521-0.419,0.699-0.729c0.178-0.308,0.268-0.695,0.268-1.164
			c0-0.503-0.117-0.909-0.35-1.217c-0.234-0.311-0.533-0.548-0.898-0.716c-0.365-0.167-0.768-0.275-1.217-0.323
			c-0.449-0.045-0.879-0.068-1.289-0.068h-2.242V24.639L199.475,24.639z"/>
	</g>
	<g>
		<defs>
			<rect id="SVGID_17_" width="247.221" height="68.759"/>
		</defs>
		<clipPath id="SVGID_18_">
			<use xlink:href="#SVGID_17_"  overflow="visible"/>
		</clipPath>
		<path clip-path="url(#SVGID_18_)" fill="#404041" d="M217.91,16.235h3.615l8.629,19.837h-4.934l-1.707-4.206h-7.707l-1.65,4.206
			h-4.82L217.91,16.235z M219.592,22.005l-2.41,6.164h4.848L219.592,22.005z"/>
	</g>
	<g>
		<defs>
			<rect id="SVGID_19_" width="247.221" height="68.759"/>
		</defs>
		<clipPath id="SVGID_20_">
			<use xlink:href="#SVGID_19_"  overflow="visible"/>
		</clipPath>
		<path clip-path="url(#SVGID_20_)" fill="#404041" d="M82.889,44.297c-0.262-0.351-0.586-0.614-0.971-0.791
			c-0.383-0.175-0.783-0.262-1.201-0.262c-0.48,0-0.924,0.097-1.33,0.291c-0.404,0.196-0.754,0.462-1.047,0.794
			c-0.297,0.33-0.523,0.715-0.688,1.151c-0.164,0.438-0.244,0.893-0.244,1.367c0,0.506,0.08,0.979,0.244,1.416
			c0.164,0.439,0.391,0.817,0.68,1.141c0.291,0.322,0.639,0.577,1.043,0.766c0.404,0.189,0.852,0.282,1.344,0.282
			c0.531,0,1.004-0.104,1.422-0.312c0.418-0.211,0.779-0.512,1.092-0.902l0.77,0.65c-0.391,0.522-0.861,0.907-1.414,1.152
			c-0.551,0.246-1.174,0.368-1.869,0.368c-0.623,0-1.203-0.114-1.74-0.345c-0.541-0.229-1.01-0.545-1.406-0.95
			s-0.707-0.884-0.93-1.44c-0.227-0.555-0.338-1.164-0.338-1.826c0-0.64,0.105-1.234,0.324-1.791
			c0.217-0.555,0.521-1.037,0.914-1.445c0.393-0.409,0.859-0.732,1.396-0.969c0.539-0.238,1.133-0.355,1.779-0.355
			c0.588,0,1.152,0.105,1.697,0.318c0.543,0.211,1,0.56,1.367,1.041L82.889,44.297z"/>
	</g>
	<g>
		<defs>
			<rect id="SVGID_21_" width="247.221" height="68.759"/>
		</defs>
		<clipPath id="SVGID_22_">
			<use xlink:href="#SVGID_21_"  overflow="visible"/>
		</clipPath>
		<path clip-path="url(#SVGID_22_)" fill="#404041" d="M90.221,51.41c-0.662,0-1.271-0.115-1.82-0.343
			c-0.553-0.23-1.031-0.547-1.436-0.952s-0.721-0.884-0.943-1.445c-0.227-0.558-0.338-1.166-0.338-1.821
			c0-0.654,0.111-1.26,0.338-1.82c0.225-0.56,0.539-1.043,0.943-1.447s0.883-0.721,1.436-0.951c0.549-0.229,1.158-0.342,1.82-0.342
			s1.27,0.113,1.822,0.342c0.551,0.23,1.027,0.547,1.432,0.951c0.406,0.404,0.719,0.888,0.945,1.447
			c0.225,0.561,0.336,1.166,0.336,1.82c0,0.655-0.111,1.262-0.336,1.821c-0.227,0.562-0.539,1.041-0.945,1.445
			c-0.404,0.405-0.883,0.722-1.432,0.952C91.49,51.294,90.883,51.41,90.221,51.41 M90.221,50.455c0.506,0,0.971-0.095,1.393-0.284
			c0.42-0.188,0.779-0.445,1.084-0.771c0.301-0.328,0.535-0.71,0.705-1.148c0.168-0.436,0.252-0.904,0.252-1.402
			c0-0.499-0.084-0.965-0.252-1.404c-0.168-0.437-0.404-0.818-0.705-1.146c-0.305-0.326-0.664-0.584-1.084-0.771
			c-0.422-0.189-0.887-0.281-1.393-0.281c-0.508,0-0.971,0.092-1.393,0.281c-0.422,0.188-0.781,0.445-1.086,0.771
			c-0.301,0.328-0.537,0.71-0.705,1.146c-0.166,0.439-0.25,0.905-0.25,1.404c0,0.498,0.084,0.967,0.25,1.402
			c0.168,0.438,0.404,0.82,0.705,1.148c0.305,0.326,0.664,0.583,1.086,0.771C89.25,50.36,89.713,50.455,90.221,50.455"/>
	</g>
	<g>
		<defs>
			<rect id="SVGID_23_" width="247.221" height="68.759"/>
		</defs>
		<clipPath id="SVGID_24_">
			<use xlink:href="#SVGID_23_"  overflow="visible"/>
		</clipPath>
		<polygon clip-path="url(#SVGID_24_)" fill="#404041" points="97.16,42.506 98.691,42.506 101.635,49.313 101.66,49.313 
			104.627,42.506 106.123,42.506 106.123,51.19 105.092,51.19 105.092,43.905 105.068,43.905 101.955,51.19 101.33,51.19 
			98.215,43.905 98.189,43.905 98.189,51.19 97.16,51.19 		"/>
	</g>
	<g>
		<defs>
			<rect id="SVGID_25_" width="247.221" height="68.759"/>
		</defs>
		<clipPath id="SVGID_26_">
			<use xlink:href="#SVGID_25_"  overflow="visible"/>
		</clipPath>
		<polygon clip-path="url(#SVGID_26_)" fill="#404041" points="109.029,42.506 110.561,42.506 113.504,49.313 113.529,49.313 
			116.496,42.506 117.992,42.506 117.992,51.19 116.961,51.19 116.961,43.905 116.938,43.905 113.824,51.19 113.197,51.19 
			110.082,43.905 110.059,43.905 110.059,51.19 109.029,51.19 		"/>
	</g>
	<g>
		<defs>
			<rect id="SVGID_27_" width="247.221" height="68.759"/>
		</defs>
		<clipPath id="SVGID_28_">
			<use xlink:href="#SVGID_27_"  overflow="visible"/>
		</clipPath>
		<path clip-path="url(#SVGID_28_)" fill="#404041" d="M127.41,47.877c0,0.476-0.061,0.924-0.18,1.349
			c-0.119,0.427-0.307,0.8-0.563,1.123c-0.258,0.321-0.596,0.579-1.014,0.772c-0.416,0.191-0.922,0.287-1.52,0.287
			c-0.596,0-1.104-0.096-1.52-0.287c-0.418-0.193-0.754-0.451-1.012-0.772c-0.258-0.323-0.447-0.696-0.566-1.123
			c-0.117-0.425-0.176-0.873-0.176-1.349v-5.369h1.029v5.222c0,0.354,0.037,0.691,0.111,1.019c0.072,0.326,0.195,0.617,0.367,0.87
			c0.172,0.255,0.4,0.454,0.686,0.606c0.287,0.152,0.646,0.228,1.08,0.228c0.432,0,0.793-0.075,1.078-0.228s0.516-0.352,0.688-0.606
			c0.172-0.253,0.295-0.544,0.369-0.87c0.074-0.327,0.109-0.665,0.109-1.019v-5.222h1.031V47.877L127.41,47.877z"/>
	</g>
	<g>
		<defs>
			<rect id="SVGID_29_" width="247.221" height="68.759"/>
		</defs>
		<clipPath id="SVGID_30_">
			<use xlink:href="#SVGID_29_"  overflow="visible"/>
		</clipPath>
		<polygon clip-path="url(#SVGID_30_)" fill="#404041" points="130.277,42.506 131.576,42.506 136.604,49.717 136.631,49.717 
			136.631,42.506 137.658,42.506 137.658,51.19 136.359,51.19 131.334,43.979 131.307,43.979 131.307,51.19 130.277,51.19 		"/>
	</g>
	<g>
		<defs>
			<rect id="SVGID_31_" width="247.221" height="68.759"/>
		</defs>
		<clipPath id="SVGID_32_">
			<use xlink:href="#SVGID_31_"  overflow="visible"/>
		</clipPath>
		<rect x="140.566" y="42.506" clip-path="url(#SVGID_32_)" fill="#404041" width="1.029" height="8.682"/>
	</g>
	<g>
		<defs>
			<rect id="SVGID_33_" width="247.221" height="68.759"/>
		</defs>
		<clipPath id="SVGID_34_">
			<use xlink:href="#SVGID_33_"  overflow="visible"/>
		</clipPath>
		<polygon clip-path="url(#SVGID_34_)" fill="#404041" points="150.324,43.465 147.455,43.465 147.455,51.19 146.426,51.19 
			146.426,43.465 143.557,43.465 143.557,42.509 150.324,42.509 		"/>
	</g>
	<g>
		<defs>
			<rect id="SVGID_35_" width="247.221" height="68.759"/>
		</defs>
		<clipPath id="SVGID_36_">
			<use xlink:href="#SVGID_35_"  overflow="visible"/>
		</clipPath>
		<polygon clip-path="url(#SVGID_36_)" fill="#404041" points="154.332,47.449 151.096,42.508 152.41,42.508 154.85,46.43 
			157.361,42.508 158.602,42.508 155.363,47.449 155.363,51.19 154.332,51.19 		"/>
	</g>
	<g>
		<defs>
			<rect id="SVGID_37_" width="247.221" height="68.759"/>
		</defs>
		<clipPath id="SVGID_38_">
			<use xlink:href="#SVGID_37_"  overflow="visible"/>
		</clipPath>
		<path clip-path="url(#SVGID_38_)" fill="#404041" d="M170.555,44.297c-0.262-0.351-0.582-0.614-0.969-0.791
			c-0.383-0.175-0.785-0.262-1.199-0.262c-0.482,0-0.926,0.097-1.332,0.291c-0.404,0.196-0.754,0.462-1.049,0.794
			c-0.293,0.33-0.523,0.715-0.686,1.151c-0.162,0.438-0.246,0.893-0.246,1.367c0,0.506,0.084,0.979,0.246,1.416
			c0.164,0.439,0.391,0.817,0.68,1.141c0.291,0.322,0.639,0.577,1.043,0.766c0.406,0.189,0.854,0.282,1.344,0.282
			c0.529,0,1.004-0.104,1.42-0.312c0.418-0.211,0.783-0.512,1.094-0.902l0.771,0.65c-0.393,0.522-0.865,0.907-1.418,1.152
			c-0.551,0.246-1.174,0.368-1.867,0.368c-0.623,0-1.203-0.114-1.742-0.345c-0.541-0.229-1.008-0.545-1.402-0.95
			c-0.398-0.405-0.709-0.884-0.934-1.44c-0.225-0.555-0.336-1.164-0.336-1.826c0-0.64,0.107-1.234,0.322-1.791
			c0.219-0.555,0.523-1.037,0.914-1.445c0.395-0.409,0.859-0.732,1.396-0.969c0.541-0.238,1.135-0.355,1.781-0.355
			c0.586,0,1.154,0.105,1.699,0.318c0.541,0.211,0.998,0.56,1.365,1.041L170.555,44.297z"/>
	</g>
	<g>
		<defs>
			<rect id="SVGID_39_" width="247.221" height="68.759"/>
		</defs>
		<clipPath id="SVGID_40_">
			<use xlink:href="#SVGID_39_"  overflow="visible"/>
		</clipPath>
		<path clip-path="url(#SVGID_40_)" fill="#404041" d="M177.889,51.41c-0.662,0-1.27-0.115-1.822-0.343
			c-0.551-0.23-1.031-0.547-1.434-0.952c-0.406-0.405-0.719-0.884-0.943-1.445c-0.227-0.558-0.336-1.166-0.336-1.821
			c0-0.654,0.109-1.26,0.336-1.82c0.225-0.56,0.537-1.043,0.943-1.447c0.402-0.404,0.883-0.721,1.434-0.951
			c0.553-0.229,1.16-0.342,1.822-0.342c0.66,0,1.27,0.113,1.818,0.342c0.553,0.23,1.029,0.547,1.438,0.951
			c0.404,0.404,0.719,0.888,0.943,1.447c0.223,0.561,0.336,1.166,0.336,1.82c0,0.655-0.113,1.262-0.336,1.821
			c-0.225,0.562-0.539,1.041-0.943,1.445c-0.408,0.405-0.885,0.722-1.438,0.952C179.158,51.294,178.549,51.41,177.889,51.41
			 M177.889,50.455c0.506,0,0.969-0.095,1.391-0.284c0.422-0.188,0.783-0.445,1.086-0.771c0.303-0.328,0.537-0.71,0.705-1.148
			c0.168-0.436,0.252-0.904,0.252-1.402c0-0.499-0.084-0.965-0.252-1.404c-0.168-0.437-0.402-0.818-0.705-1.146
			c-0.303-0.326-0.664-0.584-1.086-0.771c-0.422-0.189-0.885-0.281-1.391-0.281c-0.508,0-0.973,0.092-1.393,0.281
			c-0.42,0.188-0.783,0.445-1.084,0.771c-0.303,0.328-0.539,0.71-0.705,1.146c-0.168,0.439-0.252,0.905-0.252,1.404
			c0,0.498,0.084,0.967,0.252,1.402c0.166,0.438,0.4,0.82,0.705,1.148c0.301,0.326,0.664,0.583,1.084,0.771
			C176.916,50.36,177.381,50.455,177.889,50.455"/>
	</g>
	<g>
		<defs>
			<rect id="SVGID_41_" width="247.221" height="68.759"/>
		</defs>
		<clipPath id="SVGID_42_">
			<use xlink:href="#SVGID_41_"  overflow="visible"/>
		</clipPath>
		<polygon clip-path="url(#SVGID_42_)" fill="#404041" points="184.828,42.506 185.857,42.506 185.857,50.231 189.832,50.231 
			189.832,51.19 184.828,51.19 		"/>
	</g>
	<g>
		<defs>
			<rect id="SVGID_43_" width="247.221" height="68.759"/>
		</defs>
		<clipPath id="SVGID_44_">
			<use xlink:href="#SVGID_43_"  overflow="visible"/>
		</clipPath>
		<polygon clip-path="url(#SVGID_44_)" fill="#404041" points="191.707,42.506 192.736,42.506 192.736,50.231 196.709,50.231 
			196.709,51.19 191.707,51.19 		"/>
	</g>
	<g>
		<defs>
			<rect id="SVGID_45_" width="247.221" height="68.759"/>
		</defs>
		<clipPath id="SVGID_46_">
			<use xlink:href="#SVGID_45_"  overflow="visible"/>
		</clipPath>
		<polygon clip-path="url(#SVGID_46_)" fill="#404041" points="198.586,42.506 204.041,42.506 204.041,43.463 199.613,43.463 
			199.613,46.186 203.748,46.186 203.748,47.143 199.613,47.143 199.613,50.231 204.262,50.231 204.262,51.19 198.586,51.19 		"/>
	</g>
	<g>
		<defs>
			<rect id="SVGID_47_" width="247.221" height="68.759"/>
		</defs>
		<clipPath id="SVGID_48_">
			<use xlink:href="#SVGID_47_"  overflow="visible"/>
		</clipPath>
		<path clip-path="url(#SVGID_48_)" fill="#404041" d="M213.986,50.6c-0.502,0.278-1.023,0.482-1.576,0.611
			c-0.551,0.134-1.109,0.197-1.674,0.197c-0.68,0-1.301-0.108-1.865-0.33c-0.563-0.221-1.051-0.533-1.463-0.933
			c-0.412-0.4-0.736-0.88-0.963-1.44c-0.229-0.561-0.344-1.179-0.344-1.858c0-0.687,0.121-1.308,0.361-1.868
			c0.242-0.559,0.574-1.037,0.998-1.436c0.426-0.396,0.92-0.705,1.484-0.926s1.174-0.332,1.828-0.332
			c0.57,0,1.121,0.087,1.648,0.258c0.529,0.171,0.998,0.467,1.416,0.885l-0.77,0.811c-0.297-0.321-0.654-0.566-1.076-0.738
			c-0.418-0.171-0.852-0.258-1.291-0.258c-0.5,0-0.963,0.09-1.387,0.27c-0.426,0.179-0.793,0.43-1.109,0.748
			s-0.563,0.698-0.738,1.139c-0.172,0.443-0.262,0.926-0.262,1.447c0,0.516,0.09,0.994,0.262,1.437
			c0.176,0.44,0.422,0.824,0.738,1.147c0.316,0.32,0.691,0.572,1.135,0.752c0.439,0.182,0.928,0.271,1.457,0.271
			c0.352,0,0.721-0.044,1.104-0.131c0.385-0.083,0.738-0.209,1.057-0.372v-2.663h-2v-0.955h3.029V50.6z"/>
	</g>
	<g>
		<defs>
			<rect id="SVGID_49_" width="247.221" height="68.759"/>
		</defs>
		<clipPath id="SVGID_50_">
			<use xlink:href="#SVGID_49_"  overflow="visible"/>
		</clipPath>
		<polygon clip-path="url(#SVGID_50_)" fill="#404041" points="216.893,42.506 222.346,42.506 222.346,43.463 217.922,43.463 
			217.922,46.186 222.053,46.186 222.053,47.143 217.922,47.143 217.922,50.231 222.568,50.231 222.568,51.19 216.893,51.19 		"/>
	</g>
	<g>
		<defs>
			<rect id="SVGID_51_" width="247.221" height="68.759"/>
		</defs>
		<clipPath id="SVGID_52_">
			<use xlink:href="#SVGID_51_"  overflow="visible"/>
		</clipPath>
		<path clip-path="url(#SVGID_52_)" fill="#404041" d="M229.029,44.041c-0.172-0.278-0.398-0.479-0.686-0.606
			s-0.584-0.189-0.896-0.189c-0.23,0-0.453,0.028-0.674,0.085c-0.221,0.056-0.418,0.142-0.596,0.257
			c-0.174,0.115-0.316,0.266-0.422,0.454c-0.105,0.188-0.158,0.408-0.158,0.661c0,0.196,0.029,0.371,0.09,0.521
			c0.063,0.151,0.162,0.289,0.301,0.412c0.139,0.121,0.33,0.236,0.564,0.344c0.236,0.104,0.527,0.212,0.873,0.316
			c0.334,0.106,0.658,0.221,0.973,0.343c0.314,0.126,0.594,0.28,0.834,0.468s0.434,0.423,0.576,0.705
			c0.145,0.283,0.215,0.636,0.215,1.06c0,0.436-0.086,0.81-0.258,1.129c-0.172,0.318-0.398,0.583-0.682,0.79
			c-0.281,0.209-0.607,0.365-0.975,0.465c-0.365,0.104-0.748,0.155-1.141,0.155c-0.254,0-0.506-0.022-0.758-0.067
			c-0.254-0.045-0.496-0.114-0.73-0.209c-0.232-0.095-0.453-0.216-0.658-0.368c-0.203-0.149-0.377-0.338-0.525-0.558l0.885-0.725
			c0.188,0.32,0.447,0.562,0.783,0.725c0.334,0.164,0.689,0.248,1.066,0.248c0.221,0,0.445-0.035,0.668-0.101
			c0.225-0.064,0.426-0.161,0.605-0.287c0.182-0.128,0.33-0.285,0.443-0.473c0.113-0.188,0.172-0.405,0.172-0.649
			c0-0.271-0.045-0.49-0.137-0.656c-0.088-0.169-0.229-0.313-0.416-0.438c-0.188-0.123-0.424-0.23-0.711-0.331
			c-0.287-0.097-0.623-0.213-1.006-0.341c-0.311-0.099-0.596-0.211-0.857-0.338c-0.26-0.127-0.488-0.28-0.68-0.466
			c-0.193-0.185-0.346-0.403-0.455-0.663c-0.109-0.258-0.164-0.565-0.164-0.926c0-0.416,0.082-0.779,0.244-1.092
			c0.162-0.311,0.383-0.568,0.662-0.776c0.277-0.209,0.594-0.367,0.943-0.473c0.354-0.106,0.719-0.159,1.104-0.159
			c0.492,0,0.938,0.075,1.342,0.225c0.406,0.152,0.768,0.416,1.088,0.794L229.029,44.041z"/>
	</g>
</g>
</svg>
